<svg viewBox="0 0 448 448">
	<path class="ql-fill" d="M319.249 284.5q0-6.5-4.75-11.25l-45.25-45.25 45.25-45.25q4.75-4.75 4.75-11.25 0-6.75-4.75-11.5l-22.5-22.5q-4.75-4.75-11.5-4.75-6.5 0-11.25 4.75l-45.25 45.25-45.25-45.25q-4.75-4.75-11.25-4.75-6.75 0-11.5 4.75l-22.5 22.5q-4.75 4.75-4.75 11.5 0 6.5 4.75 11.25l45.25 45.25-45.25 45.25q-4.75 4.75-4.75 11.25 0 6.75 4.75 11.5l22.5 22.5q4.75 4.75 11.5 4.75 6.5 0 11.25-4.75l45.25-45.25 45.25 45.25q4.75 4.75 11.25 4.75 6.75 0 11.5-4.75l22.5-22.5q4.75-4.75 4.75-11.5zM416 228q0 52.25-25.75 96.375t-69.875 69.875-96.375 25.75-96.375-25.75-69.875-69.875-25.75-96.375 25.75-96.375 69.875-69.875 96.375-25.75 96.375 25.75 69.875 69.875 25.75 96.375z"></path>
</svg>
