<svg viewBox="0 0 448 448">
	<path class="ql-fill" d="M233.315 177.333c-46.387 0-83.981 37.613-83.981 84s37.595 84 83.981 84c46.368 0 83.981-37.613 83.981-84s-37.613-84-83.981-84zM200.797 205.016c9.595-5.581 20.627-9.016 32.536-9.016 33.432 0 60.779 25.349 64.568 57.811-32.293-24.864-70.467-40.208-97.104-48.795zM420 102.666h-90.235l-12.432-37.333h-186.667l-12.432 37.333h-71.568c-20.608 0-46.667 16.725-46.667 37.333v224c0 20.608 26.059 37.333 46.667 37.333h373.333c20.608 0 28-16.725 28-37.333v-224c0-20.608-7.392-37.333-28-37.333zM233.333 382.666c-67.013 0-121.333-54.32-121.333-121.333s54.32-121.333 121.333-121.333 121.333 54.32 121.333 121.333-54.32 121.333-121.333 121.333zM410.667 177.333h-37.333v-37.333h37.333v37.333z"></path>
</svg>
